<svg width="19" height="19" viewBox="0 0 19 19" fill="none" xmlns="http://www.w3.org/2000/svg">
<path d="M16.976 7.68517H16.3595V7.6534H9.4715V10.7148H13.7968C13.1658 12.4968 11.4702 13.7761 9.4715 13.7761C6.93555 13.7761 4.87947 11.72 4.87947 9.18408C4.87947 6.64813 6.93555 4.59205 9.4715 4.59205C10.6421 4.59205 11.707 5.03365 12.5179 5.75498L14.6827 3.59023C13.3158 2.31632 11.4874 1.5307 9.4715 1.5307C5.24492 1.5307 1.81812 4.9575 1.81812 9.18408C1.81812 13.4107 5.24492 16.8375 9.4715 16.8375C13.6981 16.8375 17.1249 13.4107 17.1249 9.18408C17.1249 8.67092 17.0721 8.17001 16.976 7.68517Z" fill="#FFC107"/>
<path d="M2.7005 5.62181L5.21502 7.4659C5.8954 5.78139 7.54318 4.59205 9.47145 4.59205C10.642 4.59205 11.707 5.03365 12.5179 5.75498L14.6826 3.59022C13.3157 2.31632 11.4873 1.5307 9.47145 1.5307C6.53178 1.5307 3.98244 3.19034 2.7005 5.62181Z" fill="#FF3D00"/>
<path d="M9.47144 16.8375C11.4483 16.8375 13.2446 16.0809 14.6026 14.8506L12.2339 12.8462C11.4397 13.4502 10.4692 13.7769 9.47144 13.7761C7.4808 13.7761 5.79055 12.5068 5.15379 10.7354L2.65802 12.6583C3.92465 15.1369 6.49696 16.8375 9.47144 16.8375Z" fill="#4CAF50"/>
<path d="M16.976 7.68514H16.3595V7.65338H9.4715V10.7147H13.7968C13.495 11.5629 12.9512 12.304 12.2328 12.8466L12.234 12.8458L14.6027 14.8502C14.4351 15.0025 17.1249 13.0107 17.1249 9.18406C17.1249 8.6709 17.0721 8.16998 16.976 7.68514Z" fill="#1976D2"/>
</svg>
